<?xml version="1.0" ?><svg height="24px" version="1.1" viewBox="0 0 24 24" width="24px" xmlns="http://www.w3.org/2000/svg" xmlns:sketch="http://www.bohemiancoding.com/sketch/ns" xmlns:xlink="http://www.w3.org/1999/xlink"><title/><desc/><defs/><g fill="none" fill-rule="evenodd" id="miu" stroke="none" stroke-width="1"><g id="Artboard-1" transform="translate(-504.000000, -407.000000)"><g id="slice" transform="translate(215.000000, 119.000000)"/><path d="M518.355321,423.477719 C516.978868,424.437293 515.305148,425 513.5,425 C508.805579,425 505,421.194421 505,416.5 C505,411.805579 508.805579,408 513.5,408 C518.194421,408 522,411.805579 522,416.5 C522,418.667567 521.188662,420.645635 519.85311,422.147082 L526.197023,428.490994 C526.25233,428.546301 526.257003,428.642045 526.200832,428.698217 L524.990032,429.909017 C524.935379,429.96367 524.841084,429.963482 524.782809,429.905207 L518.355321,423.477719 L518.355321,423.477719 Z M513.5,424 C517.642136,424 521,420.642136 521,416.5 C521,412.357864 517.642136,409 513.5,409 C509.357864,409 506,412.357864 506,416.5 C506,420.642136 509.357864,424 513.5,424 L513.5,424 Z" fill="#000000" id="common-search-lookup-outline-stroke"/></g></g></svg>